<svg xmlns="http://www.w3.org/2000/svg" width="29.25" height="39" viewBox="0 0 29.25 39">
  <defs>
    <style>
      .cls-adds {
        fill: #707070;
      }
    </style>
  </defs>
  <path id="adds" class="cls-adds addsP cls" d="M30.625,17.875V6.5h-3.25V3.25L22.5,0V3.25H20.875V1.625L16,4.875V6.5H14.375V3.25L9.5,0V4.875H6.25v13H4.625A1.535,1.535,0,0,0,3,19.5L4.625,37.375A1.535,1.535,0,0,0,6.25,39H29a1.535,1.535,0,0,0,1.625-1.625L32.25,19.5C32.25,18.525,30.625,17.875,30.625,17.875Zm-6.5-1.625v-13L25.75,4.387V17.875H24.125ZM20.875,4.875H22.5v13H20.875ZM17.625,6.5V6.012L19.25,4.875v13H17.625Zm-3.25,9.75V8.125H16v9.75H14.375Zm-3.25,0v-13L12.75,4.387V17.875H11.125ZM7.875,6.5H9.5V17.875H7.875ZM6.575,26H28.513l-.325,4.875H7.062Zm.975,9.75L7.225,32.5h20.8L27.7,35.75ZM28.675,24.375H6.575l-.325-3.25H29Zm.325-6.5H27.375V8.125H29Z" transform="translate(-3)"/>
</svg>
