<svg xmlns="http://www.w3.org/2000/svg" width="34.508" height="39.893" viewBox="0 0 34.508 39.893">
  <defs>
    <style>
      .cls-pizza {
        fill: #707070;
        fill-rule: evenodd;
      }
    </style>
  </defs>
  <path id="pizza" class="cls-pizza pizzaP cls" d="M869.706,535.714c-.426.455-.8.871-1.131,1.239L865,534.879s7.216-8.395,15.385-13.112S899.432,515,899.432,515l.009,4.131c-.4.083-.85.181-1.338.292l.087-2.6a56.548,56.548,0,0,0-16.881,6.255,55.464,55.464,0,0,0-13.763,11.438l2.162,1.2Zm29.737-15.043.064,34.221-29.6-17.168a49.971,49.971,0,0,1,29.539-17.053Zm-1.528,31.46-.069-28.745A38.062,38.062,0,0,0,873.056,537.7l24.86,14.431ZM887.3,541.7a2.39,2.39,0,1,0-3.261-.876,2.386,2.386,0,0,0,3.261.876Zm-1.121-6.712a2.39,2.39,0,1,0-3.26-.878,2.39,2.39,0,0,0,3.26.878Zm9.528,10.14a2.391,2.391,0,1,0-3.26-.876,2.388,2.388,0,0,0,3.26.876Zm-1.156-13.134a2.39,2.39,0,1,0-3.26-.876,2.388,2.388,0,0,0,3.26.876Z" transform="translate(-865 -515)"/>
</svg>
